<?xml version="1.0" standalone="no"?>
<!DOCTYPE svg PUBLIC "-//W3C//DTD SVG 1.1//EN" "http://www.w3.org/Graphics/SVG/1.1/DTD/svg11.dtd">
<!--suppress XmlHighlighting -->
<svg width="172mm" height="112mm" viewBox="-86 -56 172 112" xmlns="http://www.w3.org/2000/svg" version="1.1">
<title>OpenSCAD Model</title>
<path d="
M 17.4459,-55.002 L -17.4459,-55.002 L -17.4459,-49.002 L 17.4459,-49.002 z
M -25.8255,-46.1403 L -27.0466,-52.0147 L -51.1007,-47.0147 L -49.8796,-41.1403 z
M 51.1007,-47.0147 L 27.0466,-52.0147 L 25.8255,-46.1403 L 49.8796,-41.1403 z
M 17.4459,-49.001 L -17.4459,-49.001 L -20.4459,-35.001 L 20.4459,-35.001 z
M 49.8794,-41.1393 L 25.8253,-46.1393 L 20.4459,-35.001 L 44.5,-30.001 z
M -20.4459,-35.001 L -25.8253,-46.1393 L -49.8794,-41.1393 L -44.5,-30.001 z
M 44.5,30 L 44.5,-30 L 20.4459,-35 L -20.4459,-35 L -44.5,-30 L -44.5,30
 L -20.4459,35 L 20.4459,35 z
M 75.4736,-30 L 68.4736,-30 L 68.4736,-20 L 75.4736,-20 z
M 61.4715,-30 L 44.501,-30 L 44.501,30 L 61.4715,30 z
M 68.4726,-30 L 61.4725,-30 L 61.4725,30 L 68.4726,30 z
M 85.4746,-30 L 75.4746,-30 L 75.4746,30 L 85.4746,30 z
M -44.501,-30 L -61.4715,-30 L -61.4715,30 L -44.501,30 z
M -61.4725,-30 L -68.4726,-30 L -68.4726,30 L -61.4725,30 z
M -75.4746,-30 L -85.4746,-30 L -85.4746,30 L -75.4746,30 z
M -68.4736,-30 L -75.4736,-30 L -75.4736,-20 L -68.4736,-20 z
M -68.4736,20 L -75.4736,20 L -75.4736,30 L -68.4736,30 z
M 75.4736,20 L 68.4736,20 L 68.4736,30 L 75.4736,30 z
M 49.8794,41.1393 L 44.5,30.001 L 20.4459,35.001 L 25.8253,46.1393 z
M -20.4459,35.001 L -44.5,30.001 L -49.8794,41.1393 L -25.8253,46.1393 z
M 20.4459,35.001 L -20.4459,35.001 L -17.4459,49.001 L 17.4459,49.001 z
M 51.1007,47.0147 L 49.8796,41.1403 L 25.8255,46.1403 L 27.0466,52.0147 z
M -25.8255,46.1403 L -49.8796,41.1403 L -51.1007,47.0147 L -27.0466,52.0147 z
M 17.4459,49.002 L -17.4459,49.002 L -17.4459,55.002 L 17.4459,55.002 z
" stroke="black" fill="lightgray" stroke-width="0.5"/>
</svg>
